HIERARCHY
ROOT hip
{
	OFFSET 0.000000 0.000000 0.000000 
	CHANNELS 6 Xposition Yposition Zposition Xrotation Zrotation Yrotation
	JOINT abdomen
	{
		OFFSET 0.000000 3.402643 0.000000 
		CHANNELS 3 Xrotation Zrotation Yrotation
		JOINT chest
		{
			OFFSET 0.000000 8.438565 -0.680529 
			CHANNELS 3 Xrotation Zrotation Yrotation
			JOINT neck
			{
				OFFSET 0.000000 10.207942 -0.272212 
				CHANNELS 3 Xrotation Zrotation Yrotation
				JOINT head
				{
					OFFSET 0.000000 3.130431 0.000000 
					CHANNELS 3 Xrotation Zrotation Yrotation
					End Site
					{
						OFFSET 0.000000 3.130435 0.000000 
					}
				}
			}
			JOINT lCollar
			{
				OFFSET 3.470700 6.669187 -0.816635 
				CHANNELS 3 Yrotation Zrotation Xrotation
				JOINT lShldr
				{
					OFFSET 3.198488 0.000000 0.000000 
					CHANNELS 3 Zrotation Yrotation Xrotation
					JOINT lForeArm
					{
						OFFSET 10.139888 0.000000 0.000000 
						CHANNELS 3 Yrotation Zrotation Xrotation
						JOINT lHand
						{
							OFFSET 8.370511 0.000000 0.000000 
							CHANNELS 3 Zrotation Yrotation Xrotation
							End Site
							{
								OFFSET 4.083176 0.000000 0.000000 
							}
						}
					}
				}
			}
			JOINT rCollar
			{
				OFFSET -3.470700 6.669187 -0.816635 
				CHANNELS 3 Yrotation Zrotation Xrotation
				JOINT rShldr
				{
					OFFSET -3.198488 0.000000 0.000000 
					CHANNELS 3 Zrotation Yrotation Xrotation
					JOINT rForeArm
					{
						OFFSET -10.139888 0.000000 0.000000 
						CHANNELS 3 Yrotation Zrotation Xrotation
						JOINT rHand
						{
							OFFSET -8.370511 0.000000 0.000000 
							CHANNELS 3 Zrotation Yrotation Xrotation
							End Site
							{
								OFFSET -4.083176 0.000000 0.000000 
							}
						}
					}
				}
			}
		}
	}
	JOINT lThigh
	{
		OFFSET 5.308129 -1.633274 1.361059 
		CHANNELS 3 Xrotation Zrotation Yrotation
		JOINT lShin
		{
			OFFSET -2.041588 -20.007561 0.000000 
			CHANNELS 3 Xrotation Zrotation Yrotation
			JOINT lFoot
			{
				OFFSET 0.000000 -19.190928 -1.224953 
				CHANNELS 3 Xrotation Yrotation Zrotation
				End Site
				{
					OFFSET 0.000000 -2.449906 4.627600 
				}
			}
		}
	}
	JOINT rThigh
	{
		OFFSET -5.308129 -1.633274 1.361059 
		CHANNELS 3 Xrotation Zrotation Yrotation
		JOINT rShin
		{
			OFFSET 2.041588 -20.007561 0.000000 
			CHANNELS 3 Xrotation Zrotation Yrotation
			JOINT rFoot
			{
				OFFSET 0.000000 -19.190928 -1.224953 
				CHANNELS 3 Xrotation Yrotation Zrotation
				End Site
				{
					OFFSET 0.000000 -2.449906 4.627600 
				}
			}
		}
	}
}
MOTION
Frames: 6
Frame Time: 0.033333
-2.417163 47.966759 -1.668189 1.230469 -1.064453 82.568176 23.701174 -0.800781 -6.875136 -11.943359 5.097657 -5.790148 -28.300781 -6.035156 -15.439453 29.218750 7.724609 -14.988922 -6.748047 -8.154297 23.457033 -61.962891 -19.521482 14.899083 -34.101559 -2.939453 -87.460434 17.783203 17.080078 5.325135 13.076173 13.662109 23.864880 57.646488 15.742189 1.711635 38.310547 2.851563 -87.617676 -14.482421 2.587891 -0.858934 -14.665174 6.697151 10.617815 16.827579 -3.691752 -10.259275 -31.812767 3.411489 -10.070423 -1.932237 -5.168410 -13.660338 21.712223 3.516150 15.371051 -17.710474 7.724917 14.468060 
-2.432650 47.966888 -1.672837 1.230469 -1.240234 82.402344 23.701174 -0.800781 -6.875136 -11.943359 5.097657 -5.790148 -28.300781 -6.035156 -15.439453 29.218750 7.724609 -14.988922 -6.767579 -8.271484 23.222656 -61.923828 -19.521482 16.129553 -34.628906 -2.939453 -87.450668 17.783203 17.080078 5.325135 13.125000 13.486330 23.769531 57.666016 15.742189 1.369840 38.310547 2.851563 -87.617676 -14.482421 2.587891 -0.858934 -14.661191 6.518693 9.730946 16.702320 -3.730718 -8.844658 -31.631483 3.254584 -9.987103 -2.284795 -5.378644 -13.873951 21.733982 3.349974 15.344514 -17.690166 7.991255 14.593878 
-2.438018 47.963020 -1.679389 1.230469 -1.240234 82.402344 23.701174 -0.800781 -6.875136 -11.943359 5.097657 -5.790148 -28.300781 -6.035156 -15.439453 29.218750 7.724609 -14.988922 -6.708984 -7.988281 23.408201 -61.757813 -19.355469 16.490904 -34.990234 -2.939453 -87.460434 17.783203 17.080078 5.325135 12.958984 13.574219 23.952785 58.017582 15.751955 1.369840 38.310547 2.851563 -87.617676 -14.482421 2.587891 -0.858934 -14.900773 6.415192 9.408881 16.880684 -3.743400 -8.158174 -31.813217 3.380374 -9.917916 -2.645835 -5.367826 -14.056002 22.440441 3.330077 15.922072 -17.662687 7.623270 14.613941 
-2.432444 47.963539 -1.678514 1.230469 -1.240234 82.402344 23.701174 -0.800781 -6.875136 -11.943359 5.097657 -5.790148 -28.300781 -6.035156 -15.439453 29.218750 7.724609 -14.988922 -6.718750 -8.242188 23.349607 -61.425785 -19.345703 15.986326 -34.990234 -2.939453 -87.460434 17.783203 17.080078 5.325135 12.783204 13.427735 24.050467 58.173828 15.937500 1.181640 38.310547 2.851563 -87.617676 -14.482421 2.587891 -0.858934 -15.286001 6.421402 9.382477 17.427795 -3.782489 -7.997638 -31.811562 3.418205 -10.088717 -2.841906 -5.468007 -13.866662 22.642954 3.341268 15.354801 -17.647919 7.688774 14.660852 
-2.411370 47.959549 -1.672966 1.230469 -1.240234 82.578125 23.701174 -0.800781 -6.875136 -11.943359 5.097657 -5.790148 -28.300781 -6.035156 -15.439453 29.218750 7.724609 -14.988922 -6.845703 -8.095703 23.399815 -61.259762 -19.150391 15.446018 -34.990234 -2.939453 -87.460434 17.783203 17.080078 5.325135 12.939453 13.183594 24.206757 58.525391 15.800782 1.164770 38.134766 2.851563 -87.617676 -14.482421 2.587891 -0.858934 -15.637692 6.597267 9.013345 17.967247 -3.782337 -7.675733 -31.793852 3.219881 -10.036980 -3.007500 -5.418793 -13.524469 23.152161 3.515727 14.779298 -17.714602 7.927100 14.593191 
-2.378169 47.954010 -1.662113 1.230469 -1.064453 82.743958 23.701174 -0.800781 -6.875136 -11.943359 5.097657 -5.790148 -28.300781 -6.035156 -15.439453 29.218750 7.724609 -14.988922 -7.216797 -8.261719 23.417969 -61.445313 -19.150389 14.742891 -35.156246 -2.910156 -87.450676 17.783203 17.080078 5.325135 13.242188 12.646484 23.992002 58.886723 15.439453 1.340490 37.958984 2.851563 -87.617676 -14.482421 2.587891 -0.858934 -16.098507 6.559571 8.474863 19.221052 -3.782723 -7.755885 -31.626877 3.300082 -10.199210 -3.006402 -5.464279 -13.015921 23.533096 3.515733 13.911954 -17.522120 8.041164 14.380610 
